# Blender 5.0.0
# www.blender.org
mtllib Untitled.mtl
o obj1
v 124.299728 4.950140 12.160482
v 95.460968 2.560492 12.118771
v 119.884048 2.560492 12.118771
v 115.135262 0.930234 12.090315
v 110.182915 0.103832 12.075890
v 100.209747 0.930234 12.090315
v 105.162094 0.103832 12.075890
v 78.919662 20.529137 2.999998
v 98.995857 1.264530 3.000000
v 80.936501 15.931200 2.999999
v 87.083145 8.033993 2.999999
v 91.045280 4.950140 3.000000
v 83.682632 11.727935 2.999999
v 95.460968 2.560491 3.000000
v 77.687119 25.396326 2.999998
v 77.272507 30.400000 2.999998
v 124.299728 4.950140 3.000000
v 119.884048 2.560491 3.000000
v 128.261871 8.033993 2.999999
v 131.662369 11.727935 2.999999
v 134.408508 15.931200 2.999999
v 115.135262 0.930233 3.000000
v 110.182915 0.103832 3.000000
v 105.162094 0.103832 3.000000
v 100.209747 0.930233 3.000000
v 136.425354 20.529137 2.999998
v 137.657883 25.396326 2.999998
v 138.072510 30.400000 2.999998
v 137.270691 61.721092 2.999995
v 78.074326 61.721092 2.999995
v 110.382950 55.864754 -0.000004
v 110.265419 56.316135 -0.000004
v 110.073296 56.741161 -0.000004
v 109.812103 57.127605 -0.000004
v 109.489357 57.464352 -0.000004
v 109.114349 57.741707 -0.000004
v 108.697861 57.951694 -0.000004
v 108.251877 58.088276 -0.000004
v 107.789215 58.147522 -0.000004
v 107.323204 58.127728 -0.000004
v 106.867241 58.029461 -0.000004
v 106.434448 57.855545 -0.000004
v 106.037262 57.610992 -0.000004
v 105.687126 57.302834 -0.000004
v 105.394104 56.939930 -0.000004
v 105.166626 56.532730 -0.000004
v 105.011238 56.092941 -0.000004
v 104.932411 55.633217 -0.000004
v 104.932411 55.166786 -0.000004
v 105.011238 54.707062 -0.000004
v 105.166626 54.267273 -0.000004
v 105.394104 53.860069 -0.000004
v 105.687126 53.497169 -0.000004
v 106.037262 53.189007 -0.000004
v 106.434448 52.944454 -0.000004
v 106.867241 52.770542 -0.000004
v 107.323204 52.672276 -0.000004
v 107.789215 52.652477 -0.000004
v 108.251877 52.711723 -0.000004
v 108.697861 52.848305 -0.000004
v 109.114349 53.058296 -0.000004
v 109.489357 53.335651 -0.000004
v 109.812103 53.672394 -0.000004
v 110.073296 54.058838 -0.000004
v 110.265419 54.483868 -0.000004
v 110.382950 54.935249 -0.000004
v 110.422508 55.400002 -0.000004
v 186.871735 61.721096 59.740334
v 186.871735 53.046101 59.740334
v 193.896820 61.721096 68.668030
v 193.896820 53.046101 68.668030
v 199.932632 61.721100 78.292191
v 199.932632 53.046104 78.292191
v 204.910736 61.721100 88.503662
v 204.910736 53.046104 88.503662
v 208.774658 61.721100 99.186615
v 208.774658 53.046104 99.186615
v 211.480591 61.721100 110.219910
v 211.480591 53.046104 110.219910
v 212.997833 61.721100 121.478394
v 212.997833 53.046104 121.478394
v 213.309174 61.721104 132.834396
v 213.309174 53.046108 132.834396
v 212.411102 61.721104 144.159103
v 212.411102 53.046108 144.159103
v 210.313782 61.721104 155.324097
v 210.313782 53.046108 155.324097
v 207.041000 61.721104 166.202713
v 207.041000 53.046108 166.202713
v 202.629898 61.721104 176.671600
v 202.629898 53.046108 176.671600
v 197.130493 61.721107 186.612030
v 197.130493 53.046112 186.612030
v 190.605133 61.721107 195.911240
v 190.605133 53.046112 195.911240
v 183.127853 61.721107 204.463791
v 183.127853 53.046112 204.463791
v 174.783463 61.721107 212.172653
v 174.783463 53.046112 212.172653
v 165.666580 61.721107 218.950394
v 165.666580 53.046112 218.950394
v 155.880615 61.721107 224.720184
v 155.880615 53.046112 224.720184
v 145.536545 61.721111 229.416565
v 145.536545 53.046116 229.416565
v 134.751709 61.721111 232.986252
v 134.751709 53.046116 232.986252
v 123.648399 61.721111 235.388763
v 123.648399 53.046116 235.388763
v 112.352554 61.721111 236.596893
v 112.352554 53.046116 236.596893
v 100.992294 61.721111 236.596893
v 100.992294 53.046116 236.596893
v 89.696449 61.721111 235.388763
v 89.696449 53.046116 235.388763
v 78.593147 61.721111 232.986252
v 78.593147 53.046116 232.986252
v 67.808304 61.721111 229.416565
v 67.808304 53.046116 229.416565
v 57.464233 61.721107 224.720184
v 57.464233 53.046112 224.720184
v 47.678268 61.721107 218.950394
v 47.678268 53.046112 218.950394
v 38.561382 61.721107 212.172653
v 38.561382 53.046112 212.172653
v 30.216984 61.721107 204.463791
v 30.216984 53.046112 204.463791
v 22.739708 61.721107 195.911240
v 22.739708 53.046112 195.911240
v 16.214363 61.721107 186.612030
v 16.214363 53.046112 186.612030
v 10.714949 61.721104 176.671600
v 10.714949 53.046108 176.671600
v 6.303839 61.721104 166.202713
v 6.303839 53.046108 166.202713
v 3.031068 61.721104 155.324097
v 3.031068 53.046108 155.324097
v 0.933751 61.721104 144.159103
v 0.933751 53.046108 144.159103
v 0.035673 61.721104 132.834396
v 0.035673 53.046108 132.834396
v 0.347018 61.721100 121.478394
v 0.347018 53.046104 121.478394
v 1.864262 61.721100 110.219910
v 1.864262 53.046104 110.219910
v 4.570194 61.721100 99.186615
v 4.570194 53.046104 99.186615
v 8.434116 61.721100 88.503662
v 8.434116 53.046104 88.503662
v 13.412215 61.721100 78.292191
v 13.412215 53.046104 78.292191
v 19.448034 61.721096 68.668030
v 19.448034 53.046101 68.668030
v 26.473112 61.721096 59.740334
v 26.473112 53.046101 59.740334
vn -0.3442 -0.9389 -0.0000
vn -0.3246 -0.9458 0.0086
vn -0.2655 -0.9641 -0.0000
vn -0.1646 -0.9864 -0.0000
vn -0.0000 -1.0000 -0.0000
vn 0.1646 -0.9864 -0.0000
vn 0.3247 -0.9458 -0.0000
vn 0.7859 -0.0000 -0.6184
vn 0.8472 -0.0000 -0.5313
vn 0.8989 -0.0000 -0.4382
vn 0.9969 -0.0000 0.0791
vn 0.9828 -0.0000 0.1846
vn 0.9576 -0.0000 0.2881
vn -0.7720 -0.3937 -0.4990
vn -0.7764 -0.2934 -0.5578
vn -0.7630 -0.4495 -0.4644
vn -0.7336 -0.5688 -0.3720
vn 0.0816 -0.0251 -0.9963
vn 0.0768 -0.0289 -0.9966
vn 0.0647 -0.0372 -0.9972
vn 0.0685 -0.0347 -0.9970
vn 0.4759 -0.8795 -0.0000
vn -0.7639 -0.1041 -0.6369
vn -0.7687 -0.1480 -0.6222
vn 0.3255 -0.9375 0.1232
vn 0.2885 -0.9462 0.1462
vn 0.2134 -0.9604 0.1794
vn 0.3639 -0.9268 0.0925
vn -0.0900 -0.0180 -0.9958
vn -0.0895 -0.0184 -0.9958
vn -0.1033 -0.0046 -0.9946
vn -0.3142 -0.0000 0.9493
vn -0.7183 -0.6063 -0.3413
vn -0.6760 -0.6902 -0.2580
vn 0.0534 -0.0435 -0.9976
vn 0.0564 -0.0420 -0.9975
vn -0.1063 -0.0000 0.9943
vn -0.7504 -0.0313 -0.6602
vn -0.1005 -0.0083 -0.9949
vn -0.1078 -0.0000 -0.9942
vn 0.9404 -0.0000 -0.3401
vn 0.7528 -0.0000 0.6582
vn -0.6343 -0.7480 -0.1955
vn -0.6122 -0.7738 -0.1627
vn 0.0428 -0.0483 -0.9979
vn 0.0451 -0.0474 -0.9979
vn 0.7539 0.0151 -0.6568
vn -0.1104 0.0028 -0.9939
vn -0.1049 0.0276 -0.9941
vn -0.1069 0.0183 -0.9941
vn -0.0928 0.1008 -0.9906
vn -0.1010 0.0473 -0.9938
vn -0.0969 0.0690 -0.9929
vn -0.0925 0.0951 -0.9912
vn -0.0869 0.1295 -0.9878
vn -0.0790 0.1811 -0.9803
vn -0.0648 0.2745 -0.9594
vn -0.0267 0.5035 -0.8636
vn -0.0224 0.5270 -0.8496
vn 0.8186 -0.0000 0.5744
vn -0.5135 -0.8568 -0.0477
vn -0.5514 -0.8298 -0.0864
vn -0.4935 -0.8694 -0.0249
vn 0.0328 -0.0519 -0.9981
vn 0.0344 -0.0514 -0.9981
vn -0.0000 0.6430 -0.7659
vn 0.0514 0.3590 -0.9319
vn 0.0483 0.3775 -0.9247
vn 0.0950 0.0874 -0.9916
vn 0.0732 0.2197 -0.9728
vn 0.0834 0.1522 -0.9848
vn 0.0899 0.1109 -0.9898
vn 0.0948 0.0813 -0.9922
vn 0.0990 0.0578 -0.9934
vn 0.1029 0.0373 -0.9940
vn 0.1070 0.0181 -0.9941
vn 0.1104 0.0028 -0.9939
vn 0.1089 0.0093 -0.9940
vn -0.4444 -0.8955 0.0235
vn 0.8750 -0.0000 0.4841
vn -0.8472 -0.0000 -0.5313
vn -0.9712 -0.0000 -0.2382
vn 0.0242 -0.0542 -0.9982
vn 0.0231 -0.0544 -0.9983
vn -0.4723 -0.8814 -0.0044
vn -0.0337 -0.0516 -0.9981
vn -0.0218 -0.0545 -0.9983
vn -0.0236 -0.0543 -0.9982
vn -0.0323 -0.0520 -0.9981
vn 0.7691 -0.0637 -0.6360
vn 0.7792 -0.1274 -0.6138
vn 0.7805 -0.1496 -0.6070
vn 0.1002 -0.0085 -0.9949
vn 0.1004 -0.0083 -0.9949
vn 0.0900 -0.0180 -0.9958
vn 0.0959 -0.0125 -0.9953
vn 0.4134 -0.0000 0.9105
vn -0.9828 -0.0000 0.1846
vn 0.5079 -0.0000 0.8614
vn -0.9215 -0.0000 0.3883
vn 0.9712 -0.0000 -0.2382
vn 0.0143 -0.0559 -0.9983
vn 0.0137 -0.0560 -0.9983
vn -0.0170 -0.0555 -0.9983
vn -0.3966 -0.9160 0.0608
vn -0.3997 -0.9144 0.0635
vn -0.3582 -0.9287 0.0962
vn -0.3226 -0.9388 0.1211
vn 0.7846 -0.3577 -0.5064
vn 0.7866 -0.2973 -0.5412
vn -0.9969 -0.0000 0.0791
vn -0.6786 -0.0000 0.7345
vn -0.9996 -0.0000 -0.0274
vn -0.9404 -0.0000 -0.3401
vn -0.9910 -0.0000 -0.1336
vn -0.5966 -0.0000 0.8025
vn -0.8989 -0.0000 -0.4382
vn -0.0118 -0.0563 -0.9983
vn -0.0076 -0.0564 -0.9984
vn -0.0047 -0.0568 -0.9984
vn -0.2518 -0.9538 0.1636
vn -0.2860 -0.9473 0.1444
vn -0.2117 -0.9610 0.1780
vn -0.2207 -0.9588 0.1788
vn -0.1911 -0.9627 0.1913
vn -0.1645 -0.9657 0.2009
vn 0.7484 -0.5442 -0.3791
vn 0.7706 -0.4532 -0.4481
vn -0.0807 -0.0259 -0.9964
vn -0.0762 -0.0293 -0.9967
vn -0.7859 -0.0000 -0.6184
vn -0.4134 -0.0000 0.9105
vn -0.9576 -0.0000 0.2881
vn 0.2115 -0.0000 0.9774
vn -0.8186 -0.0000 0.5744
vn 0.6786 -0.0000 0.7345
vn 0.0045 -0.0568 -0.9984
vn 0.0044 -0.0568 -0.9984
vn -0.0556 -0.0424 -0.9976
vn -0.0444 -0.0477 -0.9979
vn -0.0424 -0.0485 -0.9979
vn -0.0529 -0.0438 -0.9976
vn -0.1104 -0.9700 0.2167
vn -0.1373 -0.9681 0.2095
vn -0.0694 -0.9732 0.2192
vn -0.0852 -0.9713 0.2220
vn -0.0605 -0.9723 0.2257
vn -0.0361 -0.9730 0.2282
vn -0.0120 -0.9733 0.2293
vn 0.6901 -0.6742 -0.2631
vn 0.7228 -0.6092 -0.3263
vn -0.0676 -0.0353 -0.9971
vn -0.0641 -0.0375 -0.9972
vn -0.8750 -0.0000 0.4841
vn -0.2115 -0.0000 0.9774
vn 0.5966 -0.0000 0.8025
vn 0.3142 -0.0000 0.9493
vn -0.7528 -0.0000 0.6582
vn 0.0361 -0.9729 0.2285
vn 0.0119 -0.9733 0.2294
vn 0.0701 -0.9730 0.2197
vn 0.0605 -0.9722 0.2263
vn 0.0854 -0.9711 0.2227
vn 0.1108 -0.9697 0.2176
vn 0.1378 -0.9678 0.2107
vn -0.5079 -0.0000 0.8614
vn 0.6247 -0.7631 -0.1658
vn 0.6364 -0.7493 -0.1835
vn -0.0000 -0.0000 -1.0000
vn 0.1063 -0.0000 0.9943
vn -0.7409 0.0149 -0.6715
vn 0.1924 -0.9622 0.1927
vn 0.1653 -0.9653 0.2022
vn 0.2224 -0.9581 0.1803
vn 0.2541 -0.9530 0.1652
vn 0.5619 -0.8225 -0.0878
vn -0.0000 -0.0000 1.0000
vn 0.5508 -0.8309 -0.0787
vn 0.3629 -0.9267 0.0976
vn 0.4055 -0.9118 0.0645
vn 0.5023 -0.8643 -0.0252
vn 0.9215 -0.0000 0.3883
vn 0.4514 -0.8920 0.0241
vn 0.4757 -0.8796 -0.0003
vn -0.0000 1.0000 -0.0000
vn 0.9910 -0.0000 -0.1336
vn 0.9996 -0.0000 -0.0274
vt 0.000000 0.000000
s 1
f 2/1/1 14/1/1 9/1/1
f 2/1/2 9/1/2 6/1/2
f 9/1/3 25/1/3 6/1/3
f 6/1/4 25/1/4 24/1/4
f 6/1/4 24/1/4 7/1/4
f 7/1/5 24/1/5 23/1/5
f 7/1/5 23/1/5 5/1/5
f 5/1/6 23/1/6 22/1/6
f 5/1/6 22/1/6 4/1/6
f 4/1/7 22/1/7 18/1/7
f 4/1/7 18/1/7 3/1/7
f 69/1/8 68/1/8 70/1/8
f 69/1/8 70/1/8 71/1/8
f 71/1/9 70/1/9 72/1/9
f 71/1/9 72/1/9 73/1/9
f 73/1/10 72/1/10 74/1/10
f 73/1/10 74/1/10 75/1/10
f 83/1/11 82/1/11 84/1/11
f 83/1/11 84/1/11 85/1/11
f 85/1/12 84/1/12 86/1/12
f 85/1/12 86/1/12 87/1/12
f 87/1/13 86/1/13 88/1/13
f 87/1/13 88/1/13 89/1/13
f 153/1/14 8/1/15 10/1/16
f 151/1/17 153/1/14 10/1/16
f 65/1/18 26/1/19 21/1/20 64/1/21
f 1/1/22 3/1/22 18/1/22 17/1/22
f 153/1/14 155/1/23 15/1/24
f 8/1/15 153/1/14 15/1/24
f 89/1/25 91/1/26 4/1/27 3/1/28
f 50/1/29 15/1/30 49/1/31
f 119/1/32 117/1/32 116/1/32 118/1/32
f 151/1/17 10/1/16 13/1/33
f 149/1/34 151/1/17 13/1/33
f 21/1/20 20/1/35 63/1/36 64/1/21
f 115/1/37 113/1/37 112/1/37 114/1/37
f 15/1/24 155/1/23 16/1/38
f 49/1/31 15/1/30 16/1/39
f 49/1/31 16/1/39 48/1/40
f 74/1/41 76/1/41 77/1/41 75/1/41
f 97/1/42 95/1/42 94/1/42 96/1/42
f 149/1/34 13/1/33 11/1/43
f 147/1/44 149/1/34 11/1/43
f 63/1/36 20/1/35 19/1/45 62/1/46
s 0
f 28/1/47 29/1/47 68/1/47 69/1/47
f 48/1/48 16/1/48 30/1/48
s 1
f 47/1/49 48/1/50 30/1/51
f 46/1/52 47/1/49 30/1/51
f 45/1/53 46/1/52 30/1/51
f 44/1/54 45/1/53 30/1/51
f 43/1/55 44/1/54 30/1/51
f 42/1/56 43/1/55 30/1/51
f 41/1/57 42/1/56 30/1/51
f 40/1/58 41/1/57 30/1/51
f 40/1/58 30/1/51 39/1/59
f 95/1/60 93/1/60 92/1/60 94/1/60
f 147/1/44 11/1/43 12/1/61
f 145/1/62 147/1/44 12/1/61
f 143/1/63 145/1/62 12/1/61
f 62/1/46 19/1/45 17/1/64 61/1/65
s 0
f 39/1/66 30/1/66 29/1/66
s 1
f 38/1/67 39/1/68 29/1/69
f 37/1/70 38/1/67 29/1/69
f 36/1/71 37/1/70 29/1/69
f 35/1/72 36/1/71 29/1/69
f 34/1/73 35/1/72 29/1/69
f 33/1/74 34/1/73 29/1/69
f 32/1/75 33/1/74 29/1/69
f 31/1/76 32/1/75 29/1/69
s 0
f 29/1/77 28/1/77 67/1/77
s 1
f 31/1/76 29/1/69 67/1/78
f 143/1/63 12/1/61 141/1/79
f 93/1/80 91/1/80 90/1/80 92/1/80
f 150/1/81 152/1/81 153/1/81 151/1/81
f 147/1/82 145/1/82 144/1/82 146/1/82
f 60/1/83 61/1/65 17/1/64 18/1/84
f 141/1/79 12/1/61 14/1/85
f 55/1/86 56/1/87 14/1/88 12/1/89
f 28/1/90 69/1/91 27/1/92
f 67/1/93 28/1/94 27/1/95
f 67/1/93 27/1/95 66/1/96
f 105/1/97 103/1/97 102/1/97 104/1/97
f 139/1/98 137/1/98 136/1/98 138/1/98
f 103/1/99 101/1/99 100/1/99 102/1/99
f 135/1/100 133/1/100 132/1/100 134/1/100
f 76/1/101 78/1/101 79/1/101 77/1/101
f 59/1/102 60/1/83 18/1/84 22/1/103
f 14/1/88 56/1/87 9/1/104
f 141/1/79 14/1/85 2/1/105
f 139/1/106 141/1/79 2/1/105
f 137/1/107 139/1/106 2/1/105
f 135/1/108 137/1/107 2/1/105
f 27/1/92 69/1/91 71/1/109
f 27/1/92 71/1/109 26/1/110
f 141/1/111 139/1/111 138/1/111 140/1/111
f 127/1/112 125/1/112 124/1/112 126/1/112
f 143/1/113 141/1/113 140/1/113 142/1/113
f 149/1/114 147/1/114 146/1/114 148/1/114
f 145/1/115 143/1/115 142/1/115 144/1/115
f 125/1/116 123/1/116 122/1/116 124/1/116
f 151/1/117 149/1/117 148/1/117 150/1/117
f 25/1/118 57/1/119 24/1/120
f 27/1/95 26/1/19 65/1/18 66/1/96
f 131/1/121 133/1/122 6/1/123
f 129/1/124 131/1/121 6/1/123
f 127/1/125 129/1/124 6/1/123
f 125/1/126 127/1/125 6/1/123
f 71/1/109 73/1/127 21/1/128
f 26/1/110 71/1/109 21/1/128
f 51/1/129 8/1/130 15/1/30 50/1/29
f 152/1/131 154/1/131 155/1/131 153/1/131
f 121/1/132 119/1/132 118/1/132 120/1/132
f 137/1/133 135/1/133 134/1/133 136/1/133
f 109/1/134 107/1/134 106/1/134 108/1/134
f 131/1/135 129/1/135 128/1/135 130/1/135
f 99/1/136 97/1/136 96/1/136 98/1/136
f 58/1/137 59/1/102 22/1/103 23/1/138
f 53/1/139 54/1/140 11/1/141 13/1/142
f 121/1/143 123/1/144 7/1/145
f 119/1/146 121/1/143 7/1/145
f 117/1/147 119/1/146 7/1/145
f 115/1/148 117/1/147 7/1/145
f 113/1/149 115/1/148 7/1/145
f 73/1/127 75/1/150 20/1/151
f 21/1/128 73/1/127 20/1/151
f 51/1/129 52/1/152 10/1/153 8/1/130
f 133/1/154 131/1/154 130/1/154 132/1/154
f 117/1/155 115/1/155 114/1/155 116/1/155
f 101/1/156 99/1/156 98/1/156 100/1/156
f 107/1/157 105/1/157 104/1/157 106/1/157
f 129/1/158 127/1/158 126/1/158 128/1/158
f 56/1/87 57/1/119 25/1/118 9/1/104
f 57/1/119 58/1/137 23/1/138 24/1/120
f 109/1/159 111/1/160 5/1/161
f 107/1/162 109/1/159 5/1/161
f 105/1/163 107/1/162 5/1/161
f 103/1/164 105/1/163 5/1/161
f 101/1/165 103/1/164 5/1/161
f 123/1/166 121/1/166 120/1/166 122/1/166
f 75/1/150 77/1/167 19/1/168
f 20/1/151 75/1/150 19/1/168
f 52/1/152 53/1/139 13/1/142 10/1/153
f 60/1/169 62/1/169 61/1/169
f 60/1/169 63/1/169 62/1/169
f 60/1/169 64/1/169 63/1/169
f 60/1/169 65/1/169 64/1/169
f 60/1/169 66/1/169 65/1/169
f 60/1/169 67/1/169 66/1/169
f 60/1/169 31/1/169 67/1/169
f 60/1/169 32/1/169 31/1/169
f 60/1/169 33/1/169 32/1/169
f 60/1/169 34/1/169 33/1/169
f 60/1/169 35/1/169 34/1/169
f 60/1/169 36/1/169 35/1/169
f 60/1/169 37/1/169 36/1/169
f 60/1/169 38/1/169 37/1/169
f 60/1/169 39/1/169 38/1/169
f 60/1/169 40/1/169 39/1/169
f 60/1/169 41/1/169 40/1/169
f 60/1/169 42/1/169 41/1/169
f 60/1/169 43/1/169 42/1/169
f 60/1/169 44/1/169 43/1/169
f 60/1/169 45/1/169 44/1/169
f 60/1/169 46/1/169 45/1/169
f 60/1/169 47/1/169 46/1/169
f 60/1/169 48/1/169 47/1/169
f 60/1/169 49/1/169 48/1/169
f 60/1/169 50/1/169 49/1/169
f 60/1/169 51/1/169 50/1/169
f 60/1/169 52/1/169 51/1/169
f 60/1/169 53/1/169 52/1/169
f 60/1/169 54/1/169 53/1/169
f 60/1/169 55/1/169 54/1/169
f 60/1/169 56/1/169 55/1/169
f 60/1/169 57/1/169 56/1/169
f 60/1/169 58/1/169 57/1/169
f 60/1/169 59/1/169 58/1/169
f 111/1/170 109/1/170 108/1/170 110/1/170
f 155/1/23 154/1/171 30/1/171 16/1/38
f 125/1/126 6/1/123 7/1/145 123/1/144
f 97/1/172 99/1/173 4/1/27
f 95/1/174 97/1/172 4/1/27
f 93/1/175 95/1/174 4/1/27
f 91/1/26 93/1/175 4/1/27
f 19/1/168 77/1/167 79/1/176
f 113/1/177 111/1/177 110/1/177 112/1/177
f 19/1/168 79/1/176 17/1/178
f 99/1/173 101/1/165 5/1/161 4/1/27
f 54/1/140 55/1/86 12/1/89 11/1/141
f 135/1/108 2/1/105 6/1/123 133/1/122
f 87/1/179 89/1/25 3/1/28
f 7/1/145 5/1/161 111/1/160 113/1/149
f 87/1/179 3/1/28 85/1/180
f 17/1/178 79/1/176 81/1/181
f 91/1/182 89/1/182 88/1/182 90/1/182
f 17/1/178 81/1/181 83/1/183
f 1/1/184 17/1/178 83/1/183
f 3/1/28 1/1/184 83/1/183
f 85/1/180 3/1/28 83/1/183
f 80/1/185 84/1/185 82/1/185
f 80/1/185 86/1/185 84/1/185
f 80/1/185 88/1/185 86/1/185
f 80/1/185 90/1/185 88/1/185
f 80/1/185 92/1/185 90/1/185
f 80/1/185 94/1/185 92/1/185
f 80/1/185 96/1/185 94/1/185
f 80/1/185 98/1/185 96/1/185
f 80/1/185 100/1/185 98/1/185
f 80/1/185 102/1/185 100/1/185
f 80/1/185 104/1/185 102/1/185
f 80/1/185 106/1/185 104/1/185
f 80/1/185 108/1/185 106/1/185
f 80/1/185 110/1/185 108/1/185
f 80/1/185 112/1/185 110/1/185
f 80/1/185 114/1/185 112/1/185
f 80/1/185 116/1/185 114/1/185
f 80/1/185 118/1/185 116/1/185
f 80/1/185 120/1/185 118/1/185
f 80/1/185 122/1/185 120/1/185
f 80/1/185 124/1/185 122/1/185
f 80/1/185 126/1/185 124/1/185
f 80/1/185 128/1/185 126/1/185
f 80/1/185 130/1/185 128/1/185
f 80/1/185 132/1/185 130/1/185
f 80/1/185 134/1/185 132/1/185
f 80/1/185 136/1/185 134/1/185
f 80/1/185 138/1/185 136/1/185
f 80/1/185 140/1/185 138/1/185
f 80/1/185 142/1/185 140/1/185
f 80/1/185 144/1/185 142/1/185
f 80/1/185 146/1/185 144/1/185
f 80/1/185 148/1/185 146/1/185
f 80/1/185 150/1/185 148/1/185
f 80/1/185 152/1/185 150/1/185
f 80/1/185 154/1/185 152/1/185
s 0
f 80/1/185 30/1/185 154/1/185
f 80/1/185 29/1/185 30/1/185
f 80/1/185 68/1/185 29/1/185
s 1
f 80/1/185 70/1/185 68/1/185
f 80/1/185 72/1/185 70/1/185
f 80/1/185 74/1/185 72/1/185
f 80/1/185 76/1/185 74/1/185
f 80/1/185 78/1/185 76/1/185
f 78/1/186 80/1/186 81/1/186 79/1/186
f 80/1/187 82/1/187 83/1/187 81/1/187
